<svg id="Group_20" data-name="Group 20" xmlns="http://www.w3.org/2000/svg" width="23.914" height="28.697" viewBox="0 0 23.914 28.697">
  <g id="Group_17" data-name="Group 17" transform="translate(9.566 0)">
    <path id="Path_20" data-name="Path 20" d="M14.185,5a.6.6,0,0,1-.6-.6V2.391a1.2,1.2,0,1,0-2.391,0V4.4a.6.6,0,0,1-1.2,0V2.391a2.391,2.391,0,0,1,4.783,0V4.4A.6.6,0,0,1,14.185,5Z" transform="translate(-10 0)" fill="#333"/>
  </g>
  <g id="Group_18" data-name="Group 18" transform="translate(7.772 23.914)">
    <path id="Path_21" data-name="Path 21" d="M12.685,24.783A4.19,4.19,0,0,1,8.5,20.6a.6.6,0,0,1,1.2,0,2.989,2.989,0,1,0,5.979,0,.6.6,0,0,1,1.2,0A4.19,4.19,0,0,1,12.685,24.783Z" transform="translate(-8.5 -20)" fill="#fff"/>
  </g>
  <g id="Group_19" data-name="Group 19" transform="translate(0 3.587)">
    <path id="Path_22" data-name="Path 22" d="M24.121,24.523H3.794a1.794,1.794,0,0,1-1.166-3.157A8.313,8.313,0,0,0,5.587,15V11.37a8.37,8.37,0,0,1,16.74,0V15a8.3,8.3,0,0,0,2.95,6.355,1.794,1.794,0,0,1-1.156,3.165ZM13.957,4.2A7.181,7.181,0,0,0,6.783,11.37V15A9.5,9.5,0,0,1,3.41,22.271a.6.6,0,0,0,.384,1.056H24.121a.6.6,0,0,0,.389-1.052A9.507,9.507,0,0,1,21.131,15V11.37A7.181,7.181,0,0,0,13.957,4.2Z" transform="translate(-2 -3)" fill="#fff"/>
  </g>
</svg>