<svg xmlns="http://www.w3.org/2000/svg" width="20" height="16" viewBox="0 0 20 16">
  <g id="Group_35" data-name="Group 35" transform="translate(-2 -4)">
    <path id="Path_47" data-name="Path 47" d="M2,12a1,1,0,0,1,1-1H21a1,1,0,0,1,0,2H3A1,1,0,0,1,2,12Z" fill="#b8b8b8" fill-rule="evenodd"/>
    <path id="Path_48" data-name="Path 48" d="M4,5A1,1,0,0,1,5,4H19a1,1,0,0,1,0,2H5A1,1,0,0,1,4,5Z" fill="#b8b8b8" fill-rule="evenodd"/>
    <path id="Path_49" data-name="Path 49" d="M4,19a1,1,0,0,1,1-1H19a1,1,0,0,1,0,2H5A1,1,0,0,1,4,19Z" fill="#b8b8b8" fill-rule="evenodd"/>
  </g>
</svg>
