<svg xmlns="http://www.w3.org/2000/svg" width="18.778" height="18.778" viewBox="0 0 18.778 18.778">
  <g id="Group_34" data-name="Group 34" transform="translate(-0.006)">
    <g id="_x34__4_" transform="translate(0.006)">
      <g id="Group_14" data-name="Group 14" transform="translate(0)">
        <path id="Path_19" data-name="Path 19" d="M18.606,17.757l-4.848-4.771a7.668,7.668,0,0,0,2.05-5.211A7.839,7.839,0,0,0,7.906,0a7.838,7.838,0,0,0-7.9,7.775,7.838,7.838,0,0,0,7.9,7.775,7.945,7.945,0,0,0,4.973-1.736l4.867,4.79a.614.614,0,0,0,.859,0A.592.592,0,0,0,18.606,17.757Zm-10.7-3.4A6.632,6.632,0,0,1,1.222,7.775,6.632,6.632,0,0,1,7.906,1.2a6.632,6.632,0,0,1,6.685,6.579A6.632,6.632,0,0,1,7.906,14.353Z" transform="translate(-0.006)" fill="#b8b8b8"/>
      </g>
    </g>
  </g>
</svg>
